<svg width="32" height="32" viewBox="0 0 32 32" fill="none" xmlns="http://www.w3.org/2000/svg">
<rect width="32" height="32" rx="16" fill="#3F51B2"/>
<path d="M20.8243 7.13852L21.4973 6.46548C22.0328 5.93011 22.7591 5.6294 23.5163 5.6295C24.2735 5.6296 24.9997 5.93049 25.535 6.466C26.0704 7.0015 26.3711 7.72774 26.371 8.48496C26.3709 9.24217 26.07 9.96834 25.5345 10.5037L24.8604 11.1767C24.8604 11.1767 23.4314 11.0927 22.1704 9.83066C20.9083 8.56963 20.8243 7.13955 20.8243 7.13955L14.6384 13.3244C14.2194 13.7434 14.0099 13.9529 13.8295 14.1841C13.6169 14.4558 13.4354 14.7514 13.2861 15.0636C13.1606 15.328 13.0672 15.609 12.8795 16.1711L12.2791 17.9704M12.2791 17.9704L11.8912 19.1339C11.8456 19.2696 11.8388 19.4154 11.8714 19.5547C11.9041 19.6941 11.975 19.8216 12.0762 19.9229C12.1774 20.0242 12.3048 20.0953 12.4442 20.1281C12.5835 20.1609 12.7293 20.1542 12.865 20.1087L14.0296 19.7209M12.2791 17.9704L14.0296 19.7209M24.8615 11.1757L21.768 14.2681M18.6755 17.3616C18.2566 17.7806 18.0471 17.9901 17.8158 18.1705C17.5433 18.383 17.2484 18.5652 16.9364 18.7139C16.672 18.8394 16.3909 18.9327 15.8289 19.1204L14.0296 19.7209" stroke="#EFEFF4" stroke-width="1.55556" stroke-linecap="round"/>
<path d="M27.1481 16C27.1481 15.7937 27.0662 15.5959 26.9203 15.45C26.7744 15.3042 26.5766 15.2222 26.3703 15.2222C26.1641 15.2222 25.9662 15.3042 25.8204 15.45C25.6745 15.5959 25.5926 15.7937 25.5926 16H27.1481ZM16 6.40741C16.2062 6.40741 16.4041 6.32546 16.5499 6.1796C16.6958 6.03374 16.7777 5.83591 16.7777 5.62963C16.7777 5.42335 16.6958 5.22552 16.5499 5.07966C16.4041 4.9338 16.2062 4.85185 16 4.85185V6.40741ZM11.2047 24.3098C11.1163 24.2586 11.0187 24.2253 10.9175 24.2118C10.8162 24.1983 10.7133 24.2049 10.6146 24.2312C10.5159 24.2575 10.4233 24.303 10.3422 24.365C10.2611 24.4271 10.193 24.5045 10.1417 24.5929C10.0905 24.6813 10.0572 24.7789 10.0438 24.8801C10.0303 24.9814 10.0369 25.0843 10.0632 25.183C10.0894 25.2817 10.1349 25.3743 10.197 25.4554C10.259 25.5365 10.3365 25.6046 10.4249 25.6559L11.2047 24.3098ZM6.34411 21.5741C6.39319 21.6662 6.46031 21.7476 6.54149 21.8132C6.62266 21.8789 6.71623 21.9275 6.8166 21.9563C6.91698 21.985 7.02211 21.9932 7.12573 21.9804C7.22935 21.9677 7.32934 21.9342 7.41974 21.8819C7.51014 21.8297 7.5891 21.7598 7.65191 21.6764C7.71472 21.593 7.7601 21.4978 7.78533 21.3965C7.81057 21.2952 7.81515 21.1898 7.79881 21.0867C7.78246 20.9836 7.74552 20.8848 7.69019 20.7963L6.34411 21.5741ZM25.5926 16C25.5926 18.5441 24.5819 20.984 22.783 22.783C20.984 24.5819 18.5441 25.5926 16 25.5926V27.1482C22.1569 27.1482 27.1481 22.1569 27.1481 16H25.5926ZM16 4.85185C9.84308 4.85185 4.85182 9.84311 4.85182 16H6.40737C6.40737 13.4559 7.41802 11.016 9.21698 9.21701C11.0159 7.41805 13.4559 6.40741 16 6.40741V4.85185ZM10.4249 25.6559C12.1191 26.6361 14.0425 27.151 16 27.1482V25.5926C14.3164 25.5954 12.662 25.1528 11.2047 24.3098L10.4249 25.6559ZM4.85182 16C4.84898 17.9571 5.36382 19.8802 6.34411 21.5741L7.69019 20.7963C6.84698 19.3387 6.4044 17.6839 6.40737 16H4.85182Z" fill="#EFEFF4"/>
</svg>
